<svg width="21" height="21" viewBox="0 0 21 21" fill="none" xmlns="http://www.w3.org/2000/svg">
<path d="M10.8327 18.7498C6.71324 18.6956 3.38697 15.3693 3.33268 11.2498C3.38697 7.13041 6.71324 3.80415 10.8327 3.74985C14.9521 3.80415 18.2784 7.13041 18.3327 11.2498C18.2784 15.3693 14.9521 18.6956 10.8327 18.7498ZM10.8327 5.41652C7.62865 5.4587 5.04152 8.04582 4.99934 11.2498C5.04152 14.4539 7.62865 17.041 10.8327 17.0832C14.0367 17.041 16.6238 14.4539 16.666 11.2498C16.6238 8.04582 14.0367 5.4587 10.8327 5.41652ZM14.9993 12.0832H9.99934V7.08318H11.666V10.4165H14.9993V12.0832ZM17.7427 6.00652L15.2352 3.50652L16.4093 2.32568L18.9177 4.82568L17.7427 6.00568V6.00652ZM3.92184 6.00652L2.74268 4.82568L5.23518 2.32568L6.41434 3.50652L3.92351 6.00652H3.92184Z" fill="#FF6916"/>
</svg>
