<svg width="21" height="21" viewBox="0 0 21 21" fill="none" xmlns="http://www.w3.org/2000/svg">
<path fill-rule="evenodd" clip-rule="evenodd" d="M10.4998 4.09816C6.73426 4.09816 3.68166 7.15076 3.68166 10.9163C3.68166 14.6819 6.73426 17.7345 10.4998 17.7345C14.2654 17.7345 17.318 14.6819 17.318 10.9163C17.318 7.15076 14.2654 4.09816 10.4998 4.09816ZM2.1665 10.9163C2.1665 6.31397 5.89746 2.58301 10.4998 2.58301C15.1022 2.58301 18.8332 6.31397 18.8332 10.9163C18.8332 15.5187 15.1022 19.2497 10.4998 19.2497C5.89746 19.2497 2.1665 15.5187 2.1665 10.9163Z" fill="#FF6916"/>
<path fill-rule="evenodd" clip-rule="evenodd" d="M2.1665 10.9163C2.1665 10.4561 2.50568 10.083 2.92408 10.083H18.0756C18.494 10.083 18.8332 10.4561 18.8332 10.9163C18.8332 11.3766 18.494 11.7497 18.0756 11.7497H2.92408C2.50568 11.7497 2.1665 11.3766 2.1665 10.9163Z" fill="#FF6916"/>
<path fill-rule="evenodd" clip-rule="evenodd" d="M8.00036 10.7912C8.05747 13.1556 8.93871 15.4319 10.5002 17.2882C12.0616 15.4319 12.9429 13.1556 13 10.7912C12.9429 8.42675 12.0616 6.1504 10.5002 4.2941C8.93871 6.1504 8.05747 8.42675 8.00036 10.7912ZM10.5002 3.10161L9.88488 2.58301C7.66424 4.8263 6.40226 7.73753 6.33368 10.7751C6.33344 10.7858 6.33344 10.7965 6.33368 10.8072C6.40226 13.8448 7.66424 16.756 9.88488 18.9993C10.0428 19.1588 10.2661 19.2497 10.5002 19.2497C10.7343 19.2497 10.9576 19.1588 11.1155 18.9993C13.3361 16.756 14.5981 13.8448 14.6666 10.8072C14.6669 10.7965 14.6669 10.7858 14.6666 10.7751C14.5981 7.73753 13.3361 4.8263 11.1155 2.58301L10.5002 3.10161Z" fill="#FF6916"/>
</svg>
