<svg width="21" height="21" viewBox="0 0 21 21" fill="none" xmlns="http://www.w3.org/2000/svg">
<path d="M8.11862 7.3184C7.22434 8.07827 6.89663 9.46409 7.66881 10.5758C8.3914 11.6162 9.30162 12.5262 10.3417 13.2485C11.4535 14.0205 12.8393 13.6927 13.5991 12.7984L13.6075 12.8023C14.578 13.2519 15.6088 13.56 16.6668 13.717V15.9168L16.6659 15.9168L16.6636 15.9168C10.0181 15.9262 4.99306 10.8428 5.00017 4.25315V4.25016H7.19964L7.19978 4.25114C7.35683 5.30904 7.66483 6.33894 8.11444 7.30939L8.11862 7.3184ZM16.6659 17.5835H17.5002C17.9604 17.5835 18.3335 17.2104 18.3335 16.7501V12.9983C18.3335 12.5853 18.031 12.2346 17.6225 12.174L16.9107 12.0683C16.0104 11.9347 15.1339 11.6726 14.3081 11.29L13.6807 10.9994C13.3171 10.831 12.8852 10.9452 12.6523 11.2712L12.3683 11.6689C12.1194 12.0174 11.6441 12.1238 11.2924 11.8795C10.4155 11.2706 9.64689 10.5022 9.03768 9.62507C8.79334 9.27328 8.89979 8.79797 9.24836 8.54905L9.64581 8.26522C9.97191 8.03234 10.0861 7.60034 9.91763 7.23675L9.62669 6.60877C9.24411 5.78299 8.98202 4.90662 8.84838 4.0064L8.74269 3.29446C8.68205 2.88596 8.33137 2.5835 7.91839 2.5835H4.16684C3.7066 2.5835 3.3335 2.95659 3.3335 3.41683V4.25136C3.3254 11.7567 9.09202 17.5942 16.6659 17.5835Z" fill="#FF6916"/>
</svg>
