<svg width="113" height="87" viewBox="0 0 113 87" fill="none" xmlns="http://www.w3.org/2000/svg">
<path opacity="0.5" d="M66.0569 59.4597C66.0569 42.1514 71.7576 26.2715 83.159 11.82C90.3687 3.0818 96.1532 -0.699128 100.513 0.477162C104.537 1.98954 106.549 4.25809 106.549 7.28284C106.549 10.1395 105.207 13.1643 102.525 16.3571C100.01 19.5499 97.9976 22.1545 96.4886 24.171C94.9796 26.1875 93.7221 28.372 92.716 30.7246C90.3687 35.4298 89.195 41.1432 89.195 47.8648C93.2191 46.6886 97.2431 47.1927 101.267 49.3772C108.644 53.5783 112.333 58.9556 112.333 65.5092C112.333 71.8948 110.321 77.1041 106.297 81.1371C102.441 85.002 97.0754 86.9345 90.201 86.9345C83.3267 86.9345 77.5421 84.3298 72.8474 79.1206C68.3204 73.7432 66.0569 67.1896 66.0569 59.4597ZM0.666504 59.4597C0.666504 41.4793 6.28337 25.5994 17.5171 11.82C26.0682 1.56943 33.194 -1.53934 38.8947 2.49366C40.0684 3.33387 40.6552 4.6782 40.6552 6.52665C40.6552 9.88748 39.3977 13.1643 36.8827 16.3571C34.5354 19.5499 32.6072 22.1545 31.0982 24.171C29.5892 26.1875 28.3317 28.372 27.3257 30.7246C24.9783 35.4298 23.8046 41.1432 23.8046 47.8648C27.8287 46.6886 31.7689 47.1927 35.6252 49.3772C42.8349 53.5783 46.4398 58.9556 46.4398 65.5092C46.4398 71.8948 44.5116 77.1041 40.6552 81.1371C36.7989 85.002 31.4335 86.9345 24.5591 86.9345C17.6848 86.9345 11.9841 84.3298 7.45704 79.1206C2.93002 73.7432 0.666504 67.1896 0.666504 59.4597Z" fill="white"/>
</svg>
