<svg width="46" height="57" viewBox="0 0 46 57" fill="none" xmlns="http://www.w3.org/2000/svg">
<rect width="46" height="57" fill="white"/>
<g id="Home" clip-path="url(#clip0_0_1)">
<rect width="1600" height="6414.17" transform="translate(-312 -5142.58)" fill="white"/>
<g id="Group 730">
<g id="Group 706">
<g id="Frame 282">
<g id="Frame" clip-path="url(#clip1_0_1)">
<g id="Group">
<path id="Vector" d="M0.970408 56.3168C0.83057 56.1347 0.638292 55.973 0.559633 55.7676C0.333853 55.1733 0.770847 54.6839 1.505 54.6839C5.55885 54.681 9.6127 54.6824 13.6666 54.6824C13.8821 54.6824 14.0992 54.6824 14.3891 54.6824C14.3891 53.8973 14.4007 53.1427 14.3759 52.3882C14.3716 52.279 14.2026 52.1318 14.0773 52.0779C11.0344 50.7961 8.6586 48.7422 6.90188 45.9498C6.79846 45.7852 6.50422 45.657 6.29592 45.6541C4.91501 45.6279 3.53265 45.6468 2.15175 45.6381C1.04761 45.6323 0.511564 45.1064 0.507194 44.0008C0.498454 41.3832 0.498454 38.7671 0.507194 36.1495C0.511564 35.0191 1.05052 34.5093 2.19691 34.5078C2.96019 34.5064 3.72347 34.5006 4.48676 34.5108C4.7475 34.5151 4.85966 34.4438 4.90919 34.1582C5.76715 29.229 8.39495 25.5538 12.7809 23.1445C13.081 22.9799 13.1655 22.7833 13.1626 22.4555C13.1465 20.7105 13.2135 18.964 13.1378 17.2218C13.0766 15.8147 14.1866 15.1024 15.4422 15.6122C17.0474 16.2619 18.4924 17.1257 19.6709 18.2735C20.2841 17.4738 20.8974 16.6872 21.4902 15.8861C21.5747 15.771 21.5849 15.5845 21.5893 15.4287C21.6009 14.9203 21.582 14.4105 21.598 13.9021C21.6155 13.3486 21.936 13.0179 22.4239 13.015C22.9206 13.0121 23.2178 13.3253 23.2469 13.8948C23.2586 14.1293 23.2484 14.3653 23.2484 14.6435C23.9796 14.4411 24.6657 14.2517 25.3897 14.0521C25.3897 13.2451 25.3853 12.428 25.3911 11.6122C25.3955 11.0136 25.697 10.6479 26.1777 10.6319C26.6832 10.6144 27.0211 10.9975 27.0269 11.6108C27.0328 12.3012 27.0459 12.9931 27.0211 13.6821C27.0095 14.0172 27.1129 14.1585 27.4494 14.2255C27.9577 14.326 28.4545 14.492 28.9672 14.6319C29.0007 14.4556 29.0094 14.2706 29.0721 14.106C29.2148 13.7215 29.5047 13.5292 29.9198 13.57C30.3321 13.6122 30.5753 13.8511 30.6409 14.2604C30.8506 15.5598 31.0094 15.9487 31.7479 17.0266C32.5957 18.2648 33.0123 19.6326 32.9191 21.1344C32.8943 21.5364 33.0094 21.6835 33.4202 21.7782C35.1871 22.1831 36.8258 22.9027 38.3291 23.9209C38.8404 24.2676 38.986 24.7468 38.7093 25.162C38.4223 25.5917 37.9576 25.6543 37.423 25.2989C35.9387 24.3142 34.3277 23.6398 32.5913 23.2829C32.1339 24.0185 31.6795 24.7512 31.1784 25.5567C31.4071 25.5567 31.6431 25.5509 31.879 25.5582C32.4238 25.5742 32.7865 25.8947 32.7953 26.3594C32.8026 26.824 32.4355 27.1882 31.9053 27.1896C28.1791 27.1955 24.453 27.1955 20.7255 27.1896C20.1953 27.1882 19.8369 26.824 19.8486 26.3535C19.8588 25.9049 20.1996 25.5902 20.7109 25.5597C20.8347 25.5524 20.9585 25.5582 21.1552 25.5582C21.0503 25.4023 20.992 25.296 20.9163 25.2057C19.8457 23.9297 19.3548 22.4453 19.3096 20.7935C19.3038 20.591 19.2601 20.3478 19.1406 20.1948C18.0292 18.7673 16.5813 17.8117 14.8115 17.1635C14.8115 17.6515 14.8115 18.0783 14.8115 18.5051C14.8115 20.0317 14.7896 21.5582 14.8217 23.0848C14.8348 23.7141 14.6032 24.0797 14.0365 24.3608C10.1793 26.2763 7.7278 29.3324 6.71543 33.5232C6.57559 34.1029 6.50859 34.7001 6.42264 35.293C6.33816 35.8756 6.07742 36.132 5.4933 36.1364C4.40519 36.1451 3.31853 36.1393 2.19545 36.1393C2.19545 38.7642 2.19545 41.3512 2.19545 43.9994C3.42049 43.9994 4.64116 44.0897 5.8429 43.9746C7.15679 43.8508 7.9259 44.2805 8.62218 45.4546C10.124 47.9862 12.4138 49.6686 15.1582 50.7233C15.9681 51.035 16.0322 51.1224 16.0336 51.9993C16.0351 52.8689 16.0336 53.7371 16.0336 54.681C16.3395 54.681 16.6046 54.681 16.8697 54.681C18.1793 54.681 19.4873 54.6722 20.7954 54.6868C21.1159 54.6912 21.2382 54.5921 21.2717 54.2658C21.3402 53.6176 21.4553 52.9738 21.5572 52.3285C21.6344 51.8405 21.9345 51.6016 22.421 51.5972C22.8566 51.5929 23.2935 51.5827 23.7291 51.6002C24.2462 51.6206 24.5827 51.9439 24.5929 52.3955C24.6031 52.8543 24.2375 53.2112 23.7101 53.2462C23.531 53.2578 23.3504 53.2476 23.1027 53.2476C23.027 53.7181 22.9541 54.1711 22.8755 54.6562C25.2265 54.6562 27.5295 54.6562 29.8849 54.6562C29.8135 54.1901 29.7465 53.7516 29.6693 53.2476C28.9803 53.2476 28.3132 53.2666 27.6475 53.2418C26.976 53.2185 26.5506 52.6271 26.8507 52.0969C26.9789 51.8711 27.3066 51.6395 27.5586 51.622C28.4821 51.5579 29.4115 51.5696 30.3379 51.5769C30.8099 51.5812 31.1289 51.8187 31.2046 52.3125C31.3066 52.9752 31.4187 53.638 31.5003 54.3037C31.5324 54.5659 31.611 54.6868 31.8994 54.6839C33.4799 54.6722 35.0604 54.6781 36.7311 54.6781C36.7311 54.3547 36.7311 54.0546 36.7311 53.7545C36.7311 52.646 36.7457 51.5375 36.7238 50.429C36.7136 49.9396 36.9016 49.622 37.308 49.3526C40.3975 47.2929 42.4601 44.4655 43.1127 40.8078C43.9372 36.1815 43.474 31.7533 40.348 27.9354C39.9285 27.4227 39.946 26.977 40.3494 26.6449C40.766 26.3025 41.2132 26.3885 41.6531 26.9333C43.8847 29.7024 45.0107 32.8647 45.0719 36.4248C45.1171 39.0249 44.9306 41.5697 43.8745 43.9965C42.7617 46.5572 41.0952 48.6679 38.836 50.3008C38.482 50.5557 38.3582 50.8179 38.3669 51.2389C38.3932 52.362 38.3757 53.4865 38.3757 54.6795C38.8418 54.6795 39.2715 54.6795 39.7012 54.6795C41.1011 54.6795 42.5009 54.6868 43.9008 54.6751C44.3581 54.6708 44.7951 54.6868 45.0005 55.1791C45.203 55.6628 44.916 55.9992 44.5999 56.3139C30.0568 56.3168 15.5136 56.3168 0.970408 56.3168ZM26.118 25.5597C26.5535 25.5597 26.9949 25.5203 27.4246 25.5684C28.1107 25.6471 28.6715 25.3907 29.1828 24.9916C30.8055 23.7257 31.5353 22.0812 31.2061 20.0258C30.8681 17.921 29.2483 16.2444 27.2148 15.8511C25.0459 15.4301 22.9308 16.3143 21.7888 18.1176C20.6483 19.9181 20.7226 22.2501 22.0233 23.9355C22.8274 24.977 23.7932 25.7621 25.2469 25.564C25.5324 25.5262 25.8267 25.5597 26.118 25.5597Z" fill="#FF6916"/>
<path id="Vector_2" d="M16.0627 0.483398C19.0678 0.483398 21.7189 2.42511 22.5798 5.25538C22.7575 5.84095 22.5638 6.30417 22.0787 6.44837C21.617 6.5853 21.2237 6.33621 21.0197 5.76812C20.2885 3.72298 18.8683 2.51397 16.7095 2.17311C14.073 1.75651 11.2966 3.857 10.9965 6.51101C10.6906 9.20872 12.2085 11.5656 14.692 12.2487C17.1989 12.9392 19.6869 11.7535 20.8187 9.33254C21.1086 8.71055 21.5281 8.49788 22.0102 8.72512C22.4676 8.94216 22.5914 9.40246 22.3336 9.99094C21.0037 13.0324 18.0394 14.358 15.4582 14.0579C12.2012 13.6792 9.79916 11.3573 9.36216 8.30851C8.76639 4.15561 11.9113 0.483398 16.0627 0.483398Z" fill="#FF6916"/>
<path id="Vector_3" d="M1.97542 17.5073C1.96231 15.5132 3.64328 13.8176 5.64326 13.806C7.64178 13.7943 9.3315 15.468 9.34606 17.4724C9.35917 19.4665 7.68403 21.1591 5.67822 21.1737C3.68698 21.1897 1.98853 19.5087 1.97542 17.5073ZM7.66509 17.5117C7.67529 16.3857 6.81878 15.5015 5.69716 15.4811C4.55369 15.4607 3.65348 16.3464 3.65493 17.4913C3.65639 18.6158 4.52455 19.4854 5.65054 19.4898C6.77799 19.4956 7.65489 18.6348 7.66509 17.5117Z" fill="#FF6916"/>
<path id="Vector_4" d="M41.5789 13.7913C41.5759 15.8204 39.9241 17.4751 37.9096 17.4708C35.9023 17.4664 34.2432 15.7956 34.2446 13.7811C34.2461 11.7694 35.9154 10.0972 37.9212 10.1016C39.9343 10.1059 41.5818 11.7665 41.5789 13.7913ZM39.9212 13.7971C39.9241 12.6711 39.0589 11.7927 37.9358 11.7825C36.7981 11.7723 35.8717 12.6842 35.8848 13.8029C35.8979 14.9071 36.7996 15.7912 37.9154 15.7927C39.0355 15.7927 39.9168 14.9158 39.9212 13.7971Z" fill="#FF6916"/>
<path id="Vector_5" d="M19.7452 7.28165C19.7452 9.32242 18.1225 10.9451 16.0846 10.9466C14.0497 10.9466 12.4241 9.3195 12.4241 7.28165C12.4241 5.24089 14.0468 3.61964 16.0861 3.62109C18.1312 3.62255 19.7466 5.23943 19.7452 7.28165ZM16.1094 5.27148C14.9965 5.26274 14.0832 6.1411 14.0584 7.24524C14.0337 8.34646 14.9849 9.31368 16.089 9.31076C17.1829 9.30785 18.0963 8.39162 18.1006 7.29185C18.1065 6.17751 17.2208 5.28022 16.1094 5.27148Z" fill="#FF6916"/>
<path id="Vector_6" d="M11.2178 36.0911C11.2178 36.7626 11.2236 37.4356 11.2164 38.1071C11.2091 38.681 10.8697 39.0612 10.3875 39.0568C9.90684 39.0525 9.58492 38.6795 9.58201 38.0911C9.57618 36.7655 9.57618 35.4385 9.58201 34.113C9.58492 33.5085 9.88353 33.156 10.3759 33.1443C10.8828 33.1327 11.212 33.5114 11.2178 34.129C11.2222 34.783 11.2178 35.4371 11.2178 36.0911Z" fill="#FF6916"/>
<path id="Vector_7" d="M30.651 11.1693C30.6641 11.6311 30.3043 12.0171 29.8556 12.0244C29.4143 12.0317 29.0181 11.6428 29.0152 11.1985C29.0122 10.7717 29.3662 10.4061 29.7988 10.3871C30.2795 10.3667 30.6379 10.6959 30.651 11.1693Z" fill="#FF6916"/>
<path id="Vector_8" d="M27.0299 8.12795C27.0416 8.57951 26.6687 8.96843 26.22 8.97572C25.7714 8.983 25.3999 8.60718 25.3999 8.14688C25.3999 7.69387 25.7218 7.35738 26.1734 7.34136C26.6424 7.32533 27.0197 7.67056 27.0299 8.12795Z" fill="#FF6916"/>
<path id="Vector_9" d="M26.0641 24.5077C23.9942 24.4538 22.4108 22.7859 22.4647 20.716C22.5157 18.7801 24.2287 17.156 26.1835 17.1895C28.2097 17.2244 29.8499 18.9112 29.8048 20.917C29.7611 22.9563 28.0903 24.5601 26.0641 24.5077ZM28.1442 20.8617C28.1456 19.7372 27.2717 18.8675 26.1413 18.8661C25.0211 18.8646 24.1151 19.7532 24.1122 20.8544C24.1093 21.9498 25.0197 22.8486 26.1355 22.85C27.2629 22.8515 28.1427 21.9819 28.1442 20.8617Z" fill="#FF6916"/>
</g>
</g>
</g>
</g>
</g>
</g>
<defs>
<clipPath id="clip0_0_1">
<rect width="1600" height="6414.17" fill="white" transform="translate(-312 -5142.58)"/>
</clipPath>
<clipPath id="clip1_0_1">
<rect width="44.5764" height="55.8333" fill="white" transform="translate(0.5 0.483398)"/>
</clipPath>
</defs>
</svg>
