<svg width="57" height="57" viewBox="0 0 57 57" fill="none" xmlns="http://www.w3.org/2000/svg">
<path d="M28.0428 4.03394C34.1961 7.63929 40.6821 10.4658 47.5576 12.3845C48.4576 12.6347 48.6588 12.9132 48.6562 13.8519C48.6459 17.808 48.7155 21.7667 48.5917 25.7176C48.4421 30.4861 47.1656 34.9812 44.8239 39.1513C41.9277 44.3118 37.8375 48.2936 32.708 51.2104C31.3257 51.997 29.8893 52.6881 28.2981 52.9744C27.3052 53.1523 26.4051 52.8326 25.5154 52.4896C22.5986 51.3626 20.0326 49.6476 17.6703 47.6308C14.052 44.5413 11.241 40.8379 9.35063 36.4537C8.26748 33.9419 7.48606 31.3371 7.19206 28.6164C6.99606 26.7801 6.89806 24.9311 6.86711 23.0845C6.81554 20.0233 6.85164 16.9596 6.85164 13.8984C6.85164 12.8977 7.03732 12.6424 8.00185 12.3742C14.5833 10.5432 20.8217 7.89718 26.7223 4.45946C26.9699 4.31504 27.2175 4.17836 27.4677 4.03651C27.6585 4.03394 27.8493 4.03394 28.0428 4.03394ZM8.91995 20.3947C8.89932 20.3947 8.87611 20.3973 8.85547 20.3973C8.93026 22.5481 8.94574 24.7015 9.09016 26.8472C9.33 30.3958 10.3023 33.7613 11.8754 36.9515C13.6342 40.5233 16.0842 43.5561 19.1042 46.1273C21.224 47.93 23.5399 49.4413 26.124 50.5218C27.1401 50.9474 28.133 51.1021 29.1646 50.6069C29.6082 50.3929 30.075 50.2278 30.516 50.0086C34.5004 48.0435 37.8375 45.2737 40.579 41.7921C44.2024 37.1862 46.1959 31.9225 46.4873 26.089C46.6781 22.2696 46.5647 18.4373 46.5982 14.6102C46.6008 14.3548 46.5053 14.2439 46.2707 14.1769C45.4764 13.9474 44.6846 13.7127 43.898 13.4574C38.4178 11.6727 33.1723 9.35686 28.1691 6.49682C27.8958 6.3395 27.6843 6.29824 27.3851 6.47103C21.6831 9.76175 15.6664 12.3252 9.33773 14.1511C8.987 14.2517 8.90963 14.4167 8.91221 14.7494C8.92768 16.6295 8.91995 18.5121 8.91995 20.3947Z" fill="#FF8440"/>
<path d="M24.5485 30.1843C24.6568 30.027 24.7445 29.8465 24.8786 29.7124C28.11 26.4706 31.3517 23.2392 34.5831 19.9949C35.6199 18.9556 36.8242 18.5636 38.2401 19.0227C40.3961 19.7216 41.2058 22.4449 39.7977 24.2218C39.6404 24.4204 39.4702 24.6138 39.2897 24.7918C35.2201 28.8665 31.148 32.9386 27.0759 37.0107C25.415 38.6716 23.4808 38.6742 21.8251 37.0185C19.9167 35.1127 18.0057 33.212 16.1076 31.2984C14.7434 29.9213 14.6325 28.0438 15.8085 26.6434C16.9819 25.2431 19.1044 25.0084 20.466 26.2256C21.6885 27.3191 22.8155 28.5209 23.9786 29.6814C24.123 29.8258 24.2158 30.0218 24.3344 30.1946C24.4041 30.192 24.4763 30.1895 24.5485 30.1843ZM38.4154 22.4449C38.4283 21.5836 38.0518 21.1039 37.4483 20.9491C36.8345 20.7918 36.4168 21.1013 36.017 21.501C32.4994 25.0239 28.9791 28.5415 25.4589 32.0592C24.6852 32.8329 24.2055 32.8355 23.4396 32.0695C22.1191 30.7517 20.7987 29.4313 19.4783 28.1134C18.7897 27.4248 18.0186 27.3423 17.4616 27.8891C17.0412 28.3017 16.8297 29.1966 17.6473 29.9109C18.0418 30.2565 18.3952 30.6511 18.7691 31.0225C20.3268 32.5801 21.8793 34.1404 23.4421 35.6903C24.0946 36.3376 24.7961 36.3299 25.4537 35.6903C25.6368 35.5124 25.8148 35.3293 25.9953 35.1488C29.9436 31.2004 33.8946 27.2572 37.8326 23.2985C38.1163 23.0123 38.2994 22.6203 38.4154 22.4449Z" fill="#FF8440"/>
<path d="M10.9213 18.4993C10.9213 17.9088 10.9162 17.3208 10.9213 16.7302C10.9291 16.0597 11.1586 15.7373 11.7853 15.5155C13.5673 14.8811 15.3468 14.2493 17.1314 13.62C17.8148 13.3802 18.3951 13.5942 18.6143 14.159C18.8438 14.7444 18.555 15.3092 17.8432 15.5722C16.4119 16.1009 14.9832 16.6348 13.5338 17.1093C13.0928 17.2537 12.9819 17.4549 13 17.8804C13.0335 18.7082 13.0154 19.5387 13.0077 20.3665C13 21.086 12.5873 21.5451 11.9658 21.5425C11.3675 21.5399 10.9471 21.1015 10.9265 20.4078C10.9059 19.7759 10.9213 19.1389 10.9213 18.4993Z" fill="#FF8440"/>
<path d="M39.4755 37.1216C40.2673 37.1216 40.7418 37.9288 40.3524 38.656C40.1512 39.0326 39.8856 39.3781 39.6354 39.7263C38.0571 41.9132 36.1667 43.7984 34.0494 45.4593C33.3789 45.9854 32.6027 45.7894 32.3448 45.0415C32.2132 44.6572 32.2958 44.3091 32.5769 44.0305C32.8477 43.7623 33.1442 43.5199 33.4408 43.2775C35.375 41.6889 37.0513 39.8681 38.4517 37.7895C38.7973 37.2789 39.0552 37.1216 39.4755 37.1216Z" fill="#FF8440"/>
<path d="M30.8794 45.3897C31.4365 45.4181 31.8878 45.9235 31.8465 46.4728C31.8053 47.0247 31.2714 47.5018 30.717 47.4812C30.1444 47.4606 29.7189 46.9938 29.7421 46.4135C29.7679 45.8126 30.2682 45.3613 30.8794 45.3897Z" fill="#FF8440"/>
<path d="M21.6215 13.3053C21.6318 13.865 21.1263 14.3627 20.5461 14.3601C20.0277 14.3575 19.5532 13.8779 19.5377 13.3389C19.5222 12.8102 20.0174 12.3021 20.5667 12.2815C21.1057 12.2634 21.6112 12.7534 21.6215 13.3053Z" fill="#FF8440"/>
</svg>
