<svg width="88" height="92" viewBox="0 0 88 92" fill="none" xmlns="http://www.w3.org/2000/svg">
<path d="M11.1567 34.0945C3.11259 46.2562 0.820346 62.0684 5.08646 76.0129C7.01789 82.359 10.9232 88.8749 17.333 90.6153C21.8538 91.8251 26.6293 90.3818 30.9591 88.599C35.2889 86.8161 39.5975 84.6512 44.2668 84.3541C54.2211 83.7174 63.857 91.6765 73.4717 88.981C77.8864 87.7288 81.4521 84.3116 83.6594 80.3002C85.8668 76.2888 86.8219 71.7043 87.3313 67.141C88.7321 54.279 86.3974 40.6954 79.0113 30.0831C72.8138 21.1688 63.1566 15.0774 52.3958 13.6129C47.217 12.9125 43.5028 12.3395 38.3452 13.9313C33.2089 15.5019 28.3273 17.9215 23.9126 21.0203C18.9036 24.5223 14.5314 28.9582 11.1567 34.0945Z" fill="#F2FFEC"/>
<path d="M69.3339 54.2789C72.6237 40.8863 70.5013 25.1165 63.7094 12.4455C60.6107 6.69368 55.9413 1.15409 50.4866 0.77205C46.645 0.496132 43.2491 2.85205 40.2989 5.46266C37.3487 8.05204 34.5046 11.0235 30.9176 12.2545C23.2768 14.8651 13.747 9.09204 6.89153 13.6341C3.75031 15.7141 1.79766 19.7467 1.0548 24.0765C0.311944 28.4063 0.693985 33.0332 1.43684 37.5541C3.51684 50.2887 8.71684 62.981 17.143 71.7891C24.2107 79.1753 33.2948 83.1442 42.0817 82.4014C46.3266 82.0406 49.3617 81.8495 53.0123 79.2814C56.6629 76.7344 59.889 73.4022 62.5633 69.5393C65.5984 65.1034 67.9331 59.9247 69.3339 54.2789Z" fill="#F2FFEC"/>
<path d="M44.6435 83.6132L52.6863 78.4297L62.3524 80.219L54.4941 39.1934L36.7852 42.5876L44.6435 83.6132Z" fill="#46B249"/>
<path d="M44.9573 62.5469C44.8651 62.9712 44.0535 80.4218 44.0535 80.4218L42.0059 69.9256L44.9573 62.5469Z" fill="#DBAE4E"/>
<path d="M41.1962 83.6132L33.1534 78.4297L23.4873 80.219L31.3456 39.1934L49.0545 42.5876L41.1962 83.6132Z" fill="#46B249"/>
<path d="M58.1113 58.0829L54.4958 39.1934L42.9112 41.407L31.3451 39.1934L27.7295 58.0829C32.0091 61.1635 37.2665 62.9713 42.9296 62.9713C48.5928 62.9713 53.8317 61.1635 58.1113 58.0829Z" fill="#DBAE4E"/>
<path d="M42.9282 10.7483C29.2407 10.7483 18.1357 21.8533 18.1357 35.5408C18.1357 49.2283 29.2223 60.3332 42.9282 60.3332C56.6157 60.3332 67.7207 49.2283 67.7207 35.5408C67.7207 21.8533 56.6157 10.7483 42.9282 10.7483Z" fill="white"/>
<path d="M42.9292 61.6614C28.5223 61.6614 16.8086 49.9477 16.8086 35.5408C16.8086 21.1339 28.5223 9.42017 42.9292 9.42017C57.3362 9.42017 69.0499 21.1339 69.0499 35.5408C69.0314 49.9477 57.3177 61.6614 42.9292 61.6614ZM42.9292 12.0581C29.9796 12.0581 19.4649 22.5912 19.4649 35.5224C19.4649 48.472 29.998 58.9867 42.9292 58.9867C55.8789 58.9867 66.3935 48.4536 66.3935 35.5224C66.3935 22.5912 55.8604 12.0581 42.9292 12.0581Z" fill="#46B249"/>
<path d="M42.929 18.7175C33.6503 18.7175 26.124 26.2438 26.124 35.5225C26.124 44.8013 33.6503 52.3276 42.929 52.3276C52.2078 52.3276 59.7341 44.8013 59.7341 35.5225C59.7341 26.2438 52.2078 18.7175 42.929 18.7175Z" fill="#DF5426"/>
<path d="M23.4291 45.9449C21.732 42.7536 20.8281 39.1565 20.8281 35.5409C20.8281 23.366 30.734 13.4417 42.9274 13.4417C55.1022 13.4417 65.0082 23.3476 65.0082 35.5409C65.0082 39.0827 64.1781 42.4953 62.5547 45.6313L60.1936 44.4138C61.614 41.6468 62.3518 38.6584 62.3518 35.5224C62.3518 24.8049 53.6265 16.0795 42.9089 16.0795C32.1913 16.0795 23.466 24.8049 23.466 35.5224C23.466 38.7137 24.2592 41.8866 25.7534 44.6905L23.4291 45.9449Z" fill="#DF5426"/>
<path d="M53.4061 34.5817C52.6498 34.0467 51.8381 34.471 51.2294 35.1904C50.8973 35.5778 48.4439 38.4371 47.9089 38.1419C47.7245 38.0497 47.6691 37.6254 47.7429 36.7953L48.942 27.6826C49.0342 27.0554 48.573 26.4651 47.9458 26.3913C47.3186 26.2991 46.7283 26.7603 46.6546 27.3875C46.6546 27.3875 45.7691 34.0652 45.7138 34.4341C45.6584 34.8031 45.4555 35.0982 45.1235 35.0798C44.7176 35.0613 44.6254 34.6924 44.6254 34.2865C44.6254 33.8807 44.8468 24.1039 44.8468 24.1039C44.8652 23.4583 44.3487 22.9418 43.7215 22.9233C43.0759 22.9049 42.5594 23.4214 42.5409 24.0486C42.5409 24.0486 42.338 33.7516 42.3196 34.139C42.3011 34.5079 42.0429 34.8953 41.7108 34.8584C41.305 34.8031 41.2496 34.5079 41.2128 34.0652C41.1759 33.6225 40.77 25.9486 40.77 25.9486C40.7331 25.303 40.1982 24.8233 39.5525 24.8602C38.9069 24.8971 38.4273 25.4321 38.4642 26.0777C38.4642 26.0777 38.8885 33.9361 38.9069 34.3234C38.9254 34.7108 38.7593 35.0429 38.372 35.0798C37.9661 35.1167 37.8554 34.7662 37.8001 34.3234C37.7448 33.8623 37.8001 34.3419 37.8001 34.3419L36.97 28.7525C36.8778 28.1807 36.3428 27.7748 35.771 27.8671C35.1991 27.9593 34.7933 28.4943 34.8671 29.0661C34.8671 29.0661 36.1768 37.7914 36.5826 40.872C37.0069 44.1556 38.7224 46.0003 42.5409 46.0003C47.4293 46.0003 51.7459 39.7099 53.3138 36.7584C53.9041 35.6516 53.9041 34.9322 53.4061 34.5817Z" fill="white"/>
<path d="M43.5554 37.2754H41.6738V42.9754H43.5554V37.2754Z" fill="#46B249"/>
<path d="M39.7676 39.1939V41.0754H45.4676V39.1939H39.7676Z" fill="#46B249"/>
</svg>
