<svg width="79" height="75" viewBox="0 0 79 75" fill="none" xmlns="http://www.w3.org/2000/svg">
<g id="Group 274">
<path id="Vector" d="M8.31305 20.799C0.953395 32.23 -1.13339 47.0444 2.7607 60.1384C4.53075 66.1024 8.1081 72.2193 13.9772 73.825C18.1135 74.9719 22.492 73.6147 26.442 71.9326C30.392 70.2504 34.342 68.2242 38.6088 67.9375C47.7198 67.3449 56.5328 74.819 65.3085 72.2766C69.333 71.1106 72.6123 67.8992 74.6245 64.1335C76.6368 60.3678 77.5311 56.0668 77.9783 51.785C79.2639 39.7232 77.1398 26.9732 70.3764 17.0141C64.7123 8.66074 55.862 2.94524 46.043 1.56894C41.3104 0.919017 37.9007 0.383787 33.1868 1.87478C28.4916 3.34667 24.0199 5.60228 19.9953 8.52693C15.4119 11.8339 11.406 16.001 8.31305 20.799Z" fill="#F2FFEC"/>
<g id="Group">
<g id="Group_2">
<g id="Group_3">
<path id="Vector_2" d="M55.9229 13.5188C48.9532 14.2119 40.8831 13.0117 34.3135 9.86742L34.0968 6.92603L30.2451 7.51769C23.0086 14.0598 14.9885 17.8802 5.51769 18.9959C4.36719 19.1311 1.84943 19.5876 1.66602 19.5876C2.71647 31.7589 5.65108 44.1837 12.4207 54.3096C19.1903 64.4354 30.2118 72.1101 42.267 72.6003L46.1187 72.0087L45.1349 71.1127C60.7751 61.1221 60.7917 27.3299 55.9229 13.5188Z" fill="#46B249"/>
<path id="Vector_3" d="M46.1186 71.9918C34.0633 71.5015 23.0419 63.8269 16.2723 53.701C9.50264 43.5921 6.58471 31.1672 5.51758 18.9959C16.3056 18.5733 26.0265 14.2288 34.08 6.92603C41.1331 11.7945 51.2875 13.7724 59.7745 12.9102C64.9267 27.5327 64.6266 64.5199 46.1186 71.9918Z" fill="#B8DAAD"/>
<path id="Vector_4" d="M45.4684 68.2389C35.6974 67.5289 25.7431 61.2235 19.3236 51.6217C14.2715 44.0991 11.0034 34.2776 9.55273 22.3936C18.54 21.2779 27.027 17.5758 34.4302 11.5071C40.4328 14.9049 48.0862 16.832 55.8562 16.832C56.2897 16.832 56.7232 16.832 57.1401 16.8151C61.1752 32.1476 59.241 61.7306 45.4684 68.2389Z" fill="white"/>
</g>
<path id="Vector_5" d="M29.9452 23.5602L31.8794 33.1451L21.875 34.5651L23.9926 45.215L33.4634 43.1188L35.5976 53.2785L46.2856 51.3682L44.2181 42.0707L52.2882 40.8536L49.5037 30.2037L41.6669 31.4208L39.3493 22.2585L29.9452 23.5602Z" fill="#46B249"/>
</g>
<g id="Group_4">
<g id="Group_5">
<g id="Group_6">
<g id="Group_7">
<path id="Vector_6" d="M59.2555 27.753C57.338 29.359 56.2709 31.7763 56.3876 34.3289C56.5043 36.4589 57.4714 38.5381 59.0387 39.9581C62.1067 42.7474 68.2928 43.4743 71.6776 40.8879C74.162 38.9946 75.0123 34.9713 74.4121 31.9961C73.9952 29.9675 72.7113 28.1925 70.9606 27.1276C68.3261 25.5216 64.8079 25.0652 61.9233 26.164C60.9729 26.5528 60.0558 27.0937 59.2555 27.753Z" fill="#DF5426"/>
<g id="Group_8">
<path id="Vector_7" d="M66.7582 22.3774L64.3405 22.4789C64.8074 23.6115 64.5739 25.0146 63.7402 25.9105C64.774 26.3331 65.9579 26.4514 67.0417 26.1641C66.3247 25.0653 66.2246 23.5777 66.7582 22.3774Z" fill="#DF5426"/>
<path id="Vector_8" d="M63.0405 22.0394C62.8404 23.1889 68.3095 23.2396 68.2261 22.1915C68.126 20.7715 63.324 20.3827 63.0405 22.0394Z" fill="#DF5426"/>
</g>
<g id="Group_9">
<path id="Vector_9" d="M75.1625 27.6013L73.5452 25.7925C72.9949 26.8913 71.7777 27.6013 70.5605 27.5167C70.9107 28.5817 71.5777 29.5791 72.478 30.2553C72.8615 28.9874 73.912 27.9732 75.1625 27.6013Z" fill="#DF5426"/>
<path id="Vector_10" d="M73.0274 24.5075C72.027 25.0823 75.4951 29.376 76.2455 28.6322C77.2626 27.6349 74.478 23.6623 73.0274 24.5075Z" fill="#DF5426"/>
</g>
<g id="Group_10">
<path id="Vector_11" d="M76.6294 37.5075L76.9629 35.0733C75.779 35.3437 74.4618 34.8535 73.7448 33.873C73.1612 34.8366 72.8444 36.003 72.9111 37.1187C74.095 36.5947 75.5456 36.7637 76.6294 37.5075Z" fill="#DF5426"/>
<path id="Vector_12" d="M77.5957 33.8389C76.5119 33.4332 75.5114 38.8934 76.5452 38.9948C77.9458 39.1469 79.163 34.4306 77.5957 33.8389Z" fill="#DF5426"/>
</g>
<g id="Group_11">
<path id="Vector_13" d="M70.0755 44.9789L72.1264 43.6772C71.1593 42.9334 70.6758 41.5979 70.9592 40.3977C69.8588 40.5668 68.775 41.057 67.9746 41.8346C69.1251 42.4432 69.9421 43.6772 70.0755 44.9789Z" fill="#DF5426"/>
<path id="Vector_14" d="M73.4599 43.3896C73.0764 42.2909 68.3076 45.0125 68.8912 45.8915C69.6749 47.0748 74.0268 44.9787 73.4599 43.3896Z" fill="#DF5426"/>
</g>
<g id="Group_12">
<path id="Vector_15" d="M60.3398 44.2013L62.6408 44.9451C62.5742 43.711 63.2911 42.4939 64.3749 41.936C63.5412 41.1753 62.4741 40.6682 61.357 40.533C61.6571 41.8177 61.2402 43.2377 60.3398 44.2013Z" fill="#DF5426"/>
<path id="Vector_16" d="M63.7235 45.8072C64.3071 44.793 59.1882 42.832 58.9047 43.8632C58.5046 45.2325 62.8731 47.261 63.7235 45.8072Z" fill="#DF5426"/>
</g>
<g id="Group_13">
<path id="Vector_17" d="M54.0859 36.8646L55.003 39.1298C55.8867 38.3015 57.2707 38.0479 58.3878 38.5382C58.4212 37.4056 58.121 36.2391 57.5041 35.2925C56.7204 36.3744 55.3865 36.966 54.0859 36.8646Z" fill="#DF5426"/>
<path id="Vector_18" d="M55.0361 40.533C56.1699 40.3301 54.3691 35.1066 53.4187 35.5292C52.1182 36.104 53.4021 40.8203 55.0361 40.533Z" fill="#DF5426"/>
</g>
<g id="Group_14">
<path id="Vector_19" d="M56.0694 27.0601L54.9355 29.2238C56.1361 29.376 57.2032 30.3057 57.5533 31.4722C58.4371 30.7791 59.1207 29.7986 59.4375 28.7167C58.1536 28.8012 56.8364 28.142 56.0694 27.0601Z" fill="#DF5426"/>
<path id="Vector_20" d="M53.919 30.1703C54.8027 30.931 57.5873 26.164 56.6535 25.6906C55.3863 25.0483 52.6518 29.0715 53.919 30.1703Z" fill="#DF5426"/>
</g>
</g>
</g>
<path id="Vector_21" d="M59.0401 31.1002C58.8734 31.5059 58.8067 31.9623 58.9401 32.368C59.1068 32.8921 59.6071 33.2809 60.1406 33.3823C60.6742 33.4837 61.2411 33.3485 61.7246 33.078C62.2082 32.8075 62.6417 32.368 62.8585 31.8609C63.0919 31.3368 63.1086 30.7114 62.8585 30.2042C62.6084 29.6633 61.9748 29.2069 61.3745 29.2914C60.7242 29.3759 60.1073 29.714 59.6571 30.1873C59.3903 30.4409 59.1902 30.7621 59.0401 31.1002Z" fill="#F7A088"/>
<path id="Vector_22" d="M60.1068 35.4951C59.9901 35.7994 59.9234 36.1544 60.0234 36.4586C60.1568 36.8644 60.5236 37.1517 60.9405 37.2363C61.3573 37.3208 61.7908 37.2193 62.1577 36.9996C62.5245 36.7798 62.858 36.4586 63.0247 36.0698C63.1915 35.6641 63.2081 35.1908 63.0247 34.802C62.8246 34.3963 62.3578 34.0413 61.8909 34.092C61.3907 34.1596 60.9238 34.4132 60.5737 34.7682C60.3736 34.9879 60.2068 35.2246 60.1068 35.4951Z" fill="#F7A088"/>
<path id="Vector_23" d="M63.1246 32.4862C63.0412 32.689 63.0078 32.9088 63.0745 33.1116C63.1579 33.3821 63.408 33.568 63.6748 33.6188C63.9416 33.6695 64.225 33.6019 64.4585 33.4666C64.7086 33.3314 64.9087 33.1116 65.0254 32.8581C65.1421 32.6045 65.1421 32.2833 65.0254 32.0297C64.892 31.7593 64.5919 31.5226 64.2751 31.5733C63.9583 31.624 63.6415 31.7762 63.4247 32.0128C63.2913 32.1481 63.1913 32.3171 63.1246 32.4862Z" fill="#F7A088"/>
<path id="Vector_24" d="M58.623 34.3289C58.5729 34.4472 58.5563 34.5824 58.5896 34.7008C58.6396 34.8529 58.7897 34.9713 58.9564 35.0051C59.1232 35.0389 59.2899 34.9882 59.4233 34.9205C59.5734 34.836 59.6901 34.7177 59.7568 34.5486C59.8235 34.3965 59.8235 34.2105 59.7568 34.0584C59.6734 33.8894 59.49 33.7541 59.3066 33.7879C59.1065 33.8217 58.9231 33.9063 58.7897 34.0584C58.723 34.126 58.6563 34.2274 58.623 34.3289Z" fill="#F7A088"/>
<path id="Vector_25" d="M63.5917 30.1873C63.5417 30.3056 63.525 30.4408 63.5584 30.5592C63.6084 30.7113 63.7585 30.8296 63.9252 30.8635C64.0919 30.8973 64.2587 30.8466 64.3921 30.7789C64.5421 30.6944 64.6588 30.5761 64.7255 30.407C64.7922 30.2549 64.7922 30.0689 64.7255 29.9168C64.6422 29.7478 64.4588 29.6125 64.2753 29.6463C64.0753 29.6801 63.8918 29.7647 63.7585 29.9168C63.6918 29.9844 63.6417 30.0858 63.5917 30.1873Z" fill="#F7A088"/>
</g>
<g id="Group_15">
<g id="Group_16">
<g id="Group_17">
<path id="Vector_26" d="M43.5825 54.3098C41.7817 54.9521 40.3978 56.4059 39.8309 58.2654C39.364 59.8206 39.5307 61.5787 40.2811 63.0156C41.7651 65.8387 46.0169 67.9856 49.1182 67.022C51.3859 66.312 53.0366 63.658 53.3701 61.359C53.5869 59.8037 53.12 58.1809 52.1529 56.9638C50.6689 55.1043 48.2679 53.8533 45.9002 53.8871C45.1332 53.904 44.3328 54.0393 43.5825 54.3098Z" fill="#DF5426"/>
<g id="Group_18">
<path id="Vector_27" d="M50.3523 52.4336L48.5848 51.8589C48.6348 52.7886 48.1013 53.7353 47.2676 54.1579C47.9012 54.7327 48.7182 55.1215 49.5686 55.2229C49.3518 54.2424 49.6686 53.1605 50.3523 52.4336Z" fill="#DF5426"/>
<path id="Vector_28" d="M47.768 51.2165C47.3344 51.9941 51.2361 53.4817 51.4529 52.7041C51.753 51.6391 48.4016 50.1008 47.768 51.2165Z" fill="#DF5426"/>
</g>
<g id="Group_19">
<path id="Vector_29" d="M55.0552 58.4179L54.3549 56.6936C53.6712 57.336 52.6208 57.5219 51.7704 57.15C51.7537 58.0122 51.9705 58.9081 52.4541 59.6181C53.0376 58.7898 54.0547 58.3503 55.0552 58.4179Z" fill="#DF5426"/>
<path id="Vector_30" d="M54.3214 55.6117C53.4543 55.7638 54.8383 59.7533 55.5719 59.4321C56.5557 58.9926 55.5719 55.3919 54.3214 55.6117Z" fill="#DF5426"/>
</g>
<g id="Group_20">
<path id="Vector_31" d="M53.5532 65.9068L54.4036 64.2501C53.4865 64.1318 52.6695 63.4387 52.4027 62.5259C51.7358 63.0668 51.2022 63.8106 50.9688 64.639C51.9692 64.5882 52.9696 65.0954 53.5532 65.9068Z" fill="#DF5426"/>
<path id="Vector_32" d="M55.1866 63.54C54.5196 62.9652 52.3854 66.6166 53.1024 66.9716C54.0861 67.4449 56.1704 64.3683 55.1866 63.54Z" fill="#DF5426"/>
</g>
<g id="Group_21">
<path id="Vector_33" d="M46.9151 69.5412L48.7159 69.1355C48.2157 68.3409 48.2157 67.2591 48.7326 66.4814C47.8989 66.3124 46.9985 66.38 46.2148 66.735C46.8985 67.4619 47.1653 68.5776 46.9151 69.5412Z" fill="#DF5426"/>
<path id="Vector_34" d="M49.7672 69.3046C49.7672 68.4086 45.6487 69.1017 45.8321 69.8793C46.0989 70.9443 49.7672 70.5893 49.7672 69.3046Z" fill="#DF5426"/>
</g>
<g id="Group_22">
<path id="Vector_35" d="M40.1309 66.4135L41.5982 67.563C41.8649 66.667 42.6986 65.9739 43.6157 65.8556C43.2155 65.0949 42.5819 64.4356 41.8149 64.0637C41.6982 65.0442 41.0313 65.957 40.1309 66.4135Z" fill="#DF5426"/>
<path id="Vector_36" d="M42.1477 68.4589C42.8313 67.8842 39.6466 65.1287 39.1797 65.788C38.5461 66.667 41.1639 69.2872 42.1477 68.4589Z" fill="#DF5426"/>
</g>
<g id="Group_23">
<path id="Vector_37" d="M37.5293 59.4826L37.596 61.359C38.4464 60.9871 39.5135 61.19 40.1805 61.8324C40.4973 61.0379 40.5806 60.1081 40.3805 59.2798C39.5468 59.8207 38.4297 59.9053 37.5293 59.4826Z" fill="#DF5426"/>
<path id="Vector_38" d="M37.2794 62.3734C38.1464 62.5255 38.1964 58.2993 37.3961 58.3501C36.3123 58.4177 36.0121 62.1367 37.2794 62.3734Z" fill="#DF5426"/>
</g>
<g id="Group_24">
<path id="Vector_39" d="M41.4805 52.9746L40.1133 54.2255C40.9303 54.6482 41.4639 55.5948 41.4139 56.5415C42.2309 56.271 42.9812 55.747 43.4814 55.0539C42.5143 54.7665 41.7473 53.9551 41.4805 52.9746Z" fill="#DF5426"/>
<path id="Vector_40" d="M39.1302 54.6312C39.5637 55.4088 42.7984 52.721 42.2482 52.1462C41.4979 51.3517 38.4966 53.5155 39.1302 54.6312Z" fill="#DF5426"/>
</g>
</g>
</g>
<path id="Vector_41" d="M42.5669 56.6595C42.3502 56.8962 42.1834 57.2174 42.1668 57.5386C42.1501 57.9612 42.4169 58.3669 42.767 58.5867C43.1338 58.8064 43.5674 58.8571 43.9842 58.7895C44.4011 58.7219 44.8179 58.5191 45.118 58.2148C45.4182 57.8936 45.5849 57.4541 45.5516 57.0314C45.5015 56.575 45.1847 56.0848 44.7179 55.9834C44.2343 55.8819 43.7008 55.9496 43.2506 56.1693C43.0005 56.2707 42.767 56.4567 42.5669 56.6595Z" fill="#F7A088"/>
<path id="Vector_42" d="M42.1995 60.0914C42.0328 60.2773 41.8994 60.514 41.8994 60.7676C41.8827 61.0887 42.0828 61.4099 42.3663 61.579C42.6331 61.748 42.9832 61.7818 43.3 61.7311C43.6168 61.6804 43.9336 61.5283 44.1671 61.2916C44.4005 61.0549 44.5172 60.7168 44.5005 60.3788C44.4672 60.0238 44.2171 59.6519 43.8669 59.5673C43.5001 59.4828 43.0999 59.5504 42.7498 59.7026C42.5163 59.804 42.3496 59.9392 42.1995 60.0914Z" fill="#F7A088"/>
<path id="Vector_43" d="M45.1513 58.722C45.0345 58.8403 44.9512 58.9925 44.9512 59.1615C44.9512 59.3813 45.0679 59.5841 45.2513 59.6855C45.4347 59.787 45.6515 59.8208 45.8516 59.787C46.0683 59.7532 46.2684 59.6517 46.4185 59.4996C46.5685 59.3475 46.6519 59.1277 46.6352 58.9079C46.6186 58.6882 46.4518 58.4346 46.2184 58.3839C45.9683 58.3332 45.7182 58.367 45.4847 58.4684C45.3513 58.536 45.2346 58.6206 45.1513 58.722Z" fill="#F7A088"/>
<path id="Vector_44" d="M41.4312 58.8574C41.3645 58.925 41.3145 59.0264 41.3145 59.1279C41.3145 59.2462 41.3811 59.3814 41.4979 59.4491C41.5979 59.5167 41.7313 59.5336 41.8647 59.5167C41.9981 59.4998 42.1148 59.4322 42.1982 59.3476C42.2815 59.2462 42.3316 59.1279 42.3316 58.9926C42.3149 58.8574 42.2148 58.7053 42.0815 58.6714C41.9314 58.6376 41.7813 58.6545 41.6479 58.7222C41.5646 58.756 41.4979 58.8067 41.4312 58.8574Z" fill="#F7A088"/>
<path id="Vector_45" d="M46.0835 57.2007C46.0168 57.2683 45.9668 57.3697 45.9668 57.4711C45.9668 57.5895 46.0335 57.7247 46.1502 57.7923C46.2503 57.8599 46.3836 57.8768 46.517 57.8599C46.6504 57.843 46.7671 57.7754 46.8505 57.6909C46.9339 57.5895 46.9839 57.4711 46.9839 57.3359C46.9672 57.2007 46.8672 57.0485 46.7338 57.0147C46.5837 56.9809 46.4337 56.9978 46.3003 57.0654C46.2002 57.0823 46.1335 57.133 46.0835 57.2007Z" fill="#F7A088"/>
</g>
<g id="Group_25">
<g id="Group_26">
<g id="Group_27">
<path id="Vector_46" d="M45.9532 13.6716C45.0028 14.6859 44.586 16.1058 44.8194 17.492C45.0195 18.6584 45.7031 19.7403 46.6702 20.4165C48.5544 21.7351 52.0059 21.7013 53.7066 20.0277C54.9405 18.8106 55.1406 16.5285 54.607 14.9394C54.2402 13.8575 53.4065 12.9616 52.3727 12.5052C50.8053 11.8121 48.8378 11.7952 47.3205 12.6235C46.8203 12.8771 46.3534 13.249 45.9532 13.6716Z" fill="#DF5426"/>
<g id="Group_28">
<path id="Vector_47" d="M49.722 10.1724L48.4047 10.3921C48.7382 10.9838 48.7049 11.7783 48.3047 12.3192C48.9049 12.4714 49.5719 12.4545 50.1388 12.2347C49.6719 11.6938 49.5052 10.8824 49.722 10.1724Z" fill="#DF5426"/>
<path id="Vector_48" d="M47.637 10.2567C47.6036 10.8991 50.6216 10.5441 50.5049 9.96937C50.3715 9.19176 47.687 9.31009 47.637 10.2567Z" fill="#DF5426"/>
</g>
<g id="Group_29">
<path id="Vector_49" d="M54.723 12.4711L53.6892 11.5752C53.4558 12.2176 52.8388 12.6909 52.1719 12.7416C52.4387 13.3164 52.8722 13.8066 53.4224 14.1109C53.5391 13.384 54.056 12.7585 54.723 12.4711Z" fill="#DF5426"/>
<path id="Vector_50" d="M53.3238 10.8991C52.8069 11.3048 55.0245 13.4179 55.3914 12.9614C55.8749 12.336 54.0574 10.3412 53.3238 10.8991Z" fill="#DF5426"/>
</g>
<g id="Group_30">
<path id="Vector_51" d="M56.1914 17.8129L56.208 16.4437C55.5744 16.6803 54.8074 16.4944 54.3406 16.0042C54.0904 16.5789 53.9904 17.2382 54.1071 17.8468C54.7407 17.4918 55.5577 17.4918 56.1914 17.8129Z" fill="#DF5426"/>
<path id="Vector_52" d="M56.4746 15.7337C55.8577 15.5816 55.6743 18.6582 56.2412 18.6582C57.0415 18.6413 57.3917 15.9366 56.4746 15.7337Z" fill="#DF5426"/>
</g>
<g id="Group_31">
<path id="Vector_53" d="M53.1046 22.4111L54.1384 21.549C53.5548 21.2109 53.2047 20.5009 53.2714 19.8247C52.6711 19.9938 52.1042 20.3487 51.7207 20.839C52.4043 21.0756 52.9379 21.7011 53.1046 22.4111Z" fill="#DF5426"/>
<path id="Vector_54" d="M54.8545 21.2954C54.5711 20.7207 52.12 22.5464 52.5035 22.9859C53.0204 23.5944 55.2881 22.1238 54.8545 21.2954Z" fill="#DF5426"/>
</g>
<g id="Group_32">
<path id="Vector_55" d="M47.6699 22.6646L48.9872 22.9182C48.8704 22.242 49.1706 21.5151 49.7375 21.1432C49.2206 20.7882 48.6037 20.5685 47.9867 20.5854C48.2368 21.2616 48.1034 22.073 47.6699 22.6646Z" fill="#DF5426"/>
<path id="Vector_56" d="M49.6547 23.3072C49.9048 22.7155 46.9535 21.9886 46.8535 22.5634C46.7368 23.3579 49.2879 24.1693 49.6547 23.3072Z" fill="#DF5426"/>
</g>
<g id="Group_33">
<path id="Vector_57" d="M43.7344 19.0641L44.3847 20.2475C44.8182 19.7234 45.5685 19.4867 46.2188 19.6896C46.1521 19.0641 45.9186 18.4387 45.5185 17.9653C45.1517 18.6077 44.4514 19.0134 43.7344 19.0641Z" fill="#DF5426"/>
<path id="Vector_58" d="M44.5017 21.008C45.1187 20.822 43.7681 18.0666 43.2679 18.3709C42.6009 18.7766 43.618 21.2784 44.5017 21.008Z" fill="#DF5426"/>
</g>
<g id="Group_34">
<path id="Vector_59" d="M44.1505 13.5188L43.6836 14.7866C44.3505 14.7866 45.0175 15.2262 45.2843 15.8516C45.7178 15.4121 46.0346 14.8205 46.1347 14.195C45.4177 14.3302 44.6507 14.0428 44.1505 13.5188Z" fill="#DF5426"/>
<path id="Vector_60" d="M43.1847 15.3786C43.7182 15.7336 44.9354 12.9105 44.3852 12.7245C43.6348 12.4541 42.401 14.8545 43.1847 15.3786Z" fill="#DF5426"/>
</g>
</g>
</g>
<path id="Vector_61" d="M46.068 15.531C46.0013 15.7677 46.0013 16.0213 46.1013 16.241C46.2347 16.5284 46.5348 16.6975 46.835 16.7144C47.1351 16.7313 47.4352 16.6129 47.6853 16.427C47.9354 16.241 48.1355 15.9706 48.2189 15.6663C48.3023 15.362 48.2689 15.0239 48.1022 14.7534C47.9188 14.466 47.5519 14.2632 47.2185 14.3477C46.8683 14.4491 46.5515 14.6689 46.3348 14.9563C46.218 15.1422 46.118 15.3282 46.068 15.531Z" fill="#F7A088"/>
<path id="Vector_62" d="M46.9517 17.8805C46.9016 18.0496 46.9017 18.2524 46.9683 18.4215C47.0684 18.6412 47.3018 18.7765 47.5353 18.7934C47.7687 18.8103 48.0021 18.7257 48.1855 18.5736C48.3856 18.4215 48.5357 18.2355 48.6024 17.9988C48.6691 17.7622 48.6524 17.5086 48.519 17.3058C48.369 17.086 48.0855 16.9169 47.8354 16.9846C47.5686 17.0522 47.3185 17.2381 47.1518 17.4579C47.0684 17.5762 46.985 17.7284 46.9517 17.8805Z" fill="#F7A088"/>
<path id="Vector_63" d="M48.4021 16.0042C48.3688 16.1225 48.3688 16.2408 48.4188 16.3592C48.4855 16.4944 48.6356 16.5789 48.7856 16.5958C48.9357 16.6127 49.0858 16.5451 49.2192 16.4606C49.3526 16.3592 49.4526 16.2408 49.486 16.0887C49.5193 15.9365 49.5193 15.7675 49.4359 15.6323C49.3526 15.497 49.1525 15.3956 49.0024 15.4294C48.8357 15.4801 48.6689 15.5815 48.5522 15.7337C48.4855 15.8182 48.4355 15.9027 48.4021 16.0042Z" fill="#F7A088"/>
<path id="Vector_64" d="M46.052 17.3397C46.0353 17.4073 46.0353 17.4919 46.0686 17.5426C46.102 17.6271 46.202 17.6778 46.2854 17.6778C46.3688 17.6778 46.4688 17.644 46.5355 17.5933C46.6022 17.5426 46.6689 17.4581 46.7023 17.3735C46.7356 17.289 46.7189 17.1876 46.6689 17.1031C46.6189 17.0185 46.5022 16.9509 46.4021 16.9847C46.3021 17.0185 46.202 17.0861 46.1353 17.1707C46.102 17.2214 46.0686 17.2721 46.052 17.3397Z" fill="#F7A088"/>
<path id="Vector_65" d="M48.5031 14.7025C48.4865 14.7701 48.4865 14.8547 48.5198 14.9054C48.5532 14.9899 48.6532 15.0406 48.7366 15.0406C48.8199 15.0406 48.92 15.0068 48.9867 14.9561C49.0534 14.9054 49.1201 14.8208 49.1534 14.7363C49.1868 14.6518 49.1701 14.5504 49.1201 14.4658C49.07 14.3813 48.9533 14.3137 48.8533 14.3475C48.7532 14.3813 48.6532 14.4489 48.5865 14.5335C48.5532 14.5842 48.5198 14.6518 48.5031 14.7025Z" fill="#F7A088"/>
</g>
</g>
</g>
</g>
</svg>
