<svg width="76" height="64" viewBox="0 0 76 64" fill="none" xmlns="http://www.w3.org/2000/svg">
<g id="Frame" clip-path="url(#clip0_2_1719)">
<g id="Group">
<g id="Group_2">
<path id="Vector" d="M20.2585 9.78894C24.7734 6.09109 29.5366 2.28262 35.2306 1.17643C44.6483 -0.625092 57.0914 3.49943 65.7488 7.07086C71.6135 9.48869 76.8111 16.2839 74.6545 22.9685C73.8012 25.5917 71.9704 27.7409 70.6516 30.1587C68.8363 33.4457 68.0295 37.1594 67.5641 40.873C67.1607 44.1284 67.6262 47.3996 65.8574 50.2599C64.1973 52.9463 61.4667 54.8901 58.705 56.2333C46.9445 62.0645 33.0275 64.5298 20.3361 60.3894C9.66173 56.9128 3.95217 49.1537 1.56285 38.313C0.0578807 31.5178 -0.717874 24.1853 1.90418 17.7535C2.72648 15.7308 3.90563 13.8186 5.53471 12.3806C10.2358 8.24027 17.2796 9.04621 23.4081 10.0734" fill="#F2FFEC"/>
</g>
<g id="Group_3">
<path id="Vector_2" fill-rule="evenodd" clip-rule="evenodd" d="M56.5006 46.2146V63.2658L36.4396 53.0414L16.332 63.2658V8.71456C16.332 4.9535 19.3264 1.90356 23.019 1.90356H49.8136C53.5062 1.90356 56.5006 4.9535 56.5006 8.71456V15.5256" fill="#46B249"/>
<path id="Vector_3" fill-rule="evenodd" clip-rule="evenodd" d="M56.5007 46.2146C48.1846 46.2146 41.4355 39.3404 41.4355 30.8701C41.4355 22.5737 48.3708 15.5256 56.5007 15.5256C64.8168 15.5256 71.5504 22.3998 71.5504 30.8701C71.5659 39.3404 64.8323 46.2146 56.5007 46.2146Z" fill="#DF5426"/>
<g id="Group_4">
<path id="Vector_4" d="M55.1814 37.0017C54.7004 37.0017 54.2505 36.812 53.9091 36.4644L49.8752 32.3398C49.177 31.6287 49.177 30.4751 49.8752 29.764C50.5734 29.0529 51.706 29.0529 52.4042 29.764L55.1814 32.5927L60.6427 27.0143C61.3409 26.3032 62.4735 26.3032 63.1716 27.0143C63.8698 27.7254 63.8698 28.879 63.1716 29.5902L56.4381 36.4644C56.1123 36.812 55.6623 37.0017 55.1814 37.0017Z" fill="white"/>
</g>
</g>
</g>
</g>
<defs>
<clipPath id="clip0_2_1719">
<rect width="75" height="62.5" fill="white" transform="translate(0.166016 0.75)"/>
</clipPath>
</defs>
</svg>
