<svg width="107" height="76" viewBox="0 0 107 76" fill="none" xmlns="http://www.w3.org/2000/svg">
<g id="Frame" clip-path="url(#clip0_2_1691)">
<g id="Group">
<g id="Group_2">
<path id="Vector" d="M0.952235 32.972C-2.06937 46.2761 19.0819 78.1276 52.6275 73.6473C68.236 71.5538 68.313 63.5518 81.3232 55.2563C89.0793 50.3064 99.5106 47.3913 103.706 38.9588C107.344 31.6807 107.324 23.17 104.226 17.0853C97.2781 3.38993 80.4571 -8.09463 59.2481 7.77245C38.0391 23.6395 8.72759 -1.30563 0.952235 32.972Z" fill="#F2FFEC"/>
<g id="Group_3">
<path id="Vector_2" d="M73.5481 48.2916H65.3686C62.193 48.2916 59.5948 45.67 59.5948 42.4222V38.7049C56.4192 38.1571 53.975 35.3397 53.9943 31.955C53.9943 31.3876 54.0712 30.8202 54.206 30.2724C54.7448 28.042 56.3615 26.2616 58.4978 25.5182C58.8635 25.4008 59.2291 25.3029 59.5948 25.2443V21.5269C59.5948 19.9617 60.1914 18.4944 61.2885 17.3792C62.3855 16.264 63.8289 15.6575 65.3686 15.6575H69.0253C69.5642 12.4293 72.3164 9.96411 75.6459 9.96411C76.204 9.96411 76.7622 10.0424 77.3011 10.1793C79.4951 10.7467 81.2272 12.3706 81.9778 14.5423C82.0933 14.914 82.1895 15.2857 82.2473 15.6575H85.904C87.4437 15.6575 88.8871 16.264 89.9841 17.3792C91.0811 18.4944 91.6778 19.9617 91.6778 21.5269V29.842L89.2335 29.3333C88.7716 29.2355 88.2712 29.2746 87.8286 29.4311C87.001 29.7246 86.3659 30.4094 86.1542 31.2702C85.7885 32.718 86.6546 34.1854 88.0595 34.5571C88.4445 34.6549 88.8486 34.6745 89.2335 34.5767L91.6778 34.0876V42.4026C91.6778 45.6308 89.0988 48.2721 85.904 48.2721H77.7245L78.2249 45.7873C78.3211 45.3178 78.2826 44.8091 78.1286 44.3395C77.84 43.4983 77.1663 42.8526 76.3195 42.6374C74.8953 42.2657 73.4519 43.1461 73.0862 44.5743C73.0285 44.7895 73.0092 45.0047 73.0092 45.2395C73.0092 45.4156 73.0285 45.5917 73.067 45.7678L73.5481 48.2916ZM63.675 34.1071V42.4222C63.675 43.3809 64.4448 44.1439 65.3686 44.1439H69.0253C69.0638 43.9482 69.1023 43.7722 69.1408 43.5765C70.0646 39.9375 73.7213 37.7266 77.3011 38.6657C79.4951 39.2136 81.2272 40.857 81.9778 43.0287C82.0933 43.4004 82.1895 43.7722 82.2473 44.1439H85.904C86.847 44.1439 87.5976 43.3613 87.5976 42.4222V38.7049C87.4052 38.6657 87.232 38.6266 87.0395 38.5875C85.3074 38.1375 83.8447 37.0223 82.9209 35.4571C82.0163 33.8919 81.7469 32.0528 82.1895 30.292C82.7284 28.0616 84.3451 26.3008 86.4814 25.5377C86.847 25.4203 87.2127 25.3225 87.5784 25.2638V21.5465C87.5784 21.0769 87.4052 20.6465 87.078 20.3335C86.7508 20.0009 86.3274 19.8248 85.8847 19.8248H77.7052L78.1864 17.3401C78.2826 16.8509 78.2441 16.3618 78.0901 15.8923C77.8015 15.051 77.1279 14.4053 76.281 14.1901C76.0693 14.1314 75.8384 14.1119 75.6267 14.1119C74.164 14.1119 72.99 15.3053 72.99 16.7922C72.99 16.9683 73.0092 17.1444 73.0477 17.3401L73.5289 19.8248H65.3493C64.8874 19.8248 64.464 20.0009 64.1561 20.3335C63.8289 20.6661 63.6557 21.0965 63.6557 21.5465V29.8616L61.2115 29.3724C60.7496 29.2746 60.2492 29.3137 59.7873 29.4703C58.9597 29.7637 58.3246 30.4485 58.1129 31.3094C58.0551 31.5246 58.0359 31.7593 58.0359 31.9746C58.0359 33.4615 59.2099 34.6549 60.6726 34.6549C60.8458 34.6549 61.019 34.6354 61.2115 34.5962L63.675 34.1071Z" fill="white"/>
</g>
<path id="Vector_3" fill-rule="evenodd" clip-rule="evenodd" d="M26.8005 24.9509H32.5165C32.3433 25.7922 32.4011 26.6726 32.6705 27.4748C33.1709 28.9813 34.4026 30.1356 35.9231 30.5269C38.425 31.1725 40.9847 29.6465 41.6391 27.0835C41.7353 26.6922 41.7931 26.3009 41.7931 25.9096C41.7931 25.5966 41.7546 25.264 41.6968 24.9509H47.4129C49.4914 24.9509 51.1658 26.6531 51.1658 28.7661V34.5768C50.3383 34.4007 49.4722 34.4594 48.6831 34.7333C47.2012 35.242 46.0657 36.4942 45.6807 38.0398C45.0456 40.5832 46.5468 43.1854 49.068 43.8506C49.4529 43.9484 49.8379 44.0071 50.2228 44.0071C50.5307 44.0071 50.8579 43.9679 51.1658 43.9093V49.72C51.1658 51.833 49.4914 53.5352 47.4129 53.5352H41.6968C41.7546 53.8482 41.7931 54.1612 41.7931 54.4938C41.7931 57.1351 39.6953 59.2677 37.0971 59.2677C36.7121 59.2677 36.3272 59.209 35.9423 59.1111C34.4219 58.7198 33.1901 57.5851 32.6897 56.059C32.4203 55.2373 32.3626 54.3764 32.5358 53.5352H26.8197C24.7412 53.5352 23.0668 51.833 23.0668 49.72V43.9093C22.7589 43.9679 22.4509 44.0071 22.1237 44.0071C19.5255 44.0071 17.4277 41.8745 17.4277 39.2333C17.4277 38.842 17.4855 38.4507 17.5817 38.0594C17.9666 36.5137 19.0829 35.2616 20.5841 34.7529C21.3924 34.479 22.2392 34.4203 23.0668 34.5964V28.7856C23.0668 26.6531 24.7412 24.9509 26.8005 24.9509Z" fill="#46B249"/>
<g id="Group_4">
<path id="Vector_4" d="M37.0965 61.3023C36.5384 61.3023 35.9803 61.224 35.4414 61.0871C33.2473 60.5197 31.496 58.8958 30.7646 56.7045C30.6491 56.3328 30.5529 55.9611 30.4952 55.5893H26.8192C23.6244 55.5893 21.0454 52.9481 21.0454 49.7199V45.983C17.8313 45.4352 15.3871 42.6178 15.4064 39.2136C15.4064 38.6462 15.4833 38.0788 15.6181 37.531C16.157 35.3006 17.7736 33.5202 19.9099 32.7767C20.2756 32.6593 20.6413 32.5615 21.0262 32.5028V28.7659C21.0262 25.5182 23.6244 22.8965 26.7999 22.8965H32.516V24.7551L34.5561 24.9704V26.6529C34.5753 26.7116 34.5945 26.7703 34.6138 26.829C34.9025 27.6703 35.5761 28.3159 36.4422 28.5312C37.8664 28.9029 39.329 28.0225 39.6947 26.5942C39.7525 26.379 39.7717 26.1442 39.7717 25.929C39.7717 25.753 39.7525 25.5769 39.714 25.3812L39.2328 22.8965H47.4316C50.6264 22.8965 53.2054 25.5377 53.2054 28.7659V37.1006L50.7611 36.5919C50.2992 36.4941 49.7988 36.5332 49.3369 36.6897C48.5093 36.9832 47.8742 37.6679 47.6625 38.5484C47.2969 39.9962 48.1629 41.4831 49.5871 41.8548C49.972 41.9526 50.3762 41.9722 50.7804 41.8744L53.2246 41.3853V49.7199C53.2246 52.9677 50.6264 55.5893 47.4508 55.5893H43.7748C43.2167 58.8371 40.4261 61.3023 37.0965 61.3023ZM34.5561 55.198C34.5753 55.2567 34.5945 55.3154 34.6138 55.3741C34.9025 56.2154 35.5761 56.8611 36.4422 57.0763C36.6731 57.135 36.8848 57.135 37.1158 57.1545C38.5785 57.1545 39.7717 55.9415 39.7717 54.4546C39.7717 54.2785 39.7525 54.0829 39.714 53.9068L39.2328 51.422H47.4316C48.3746 51.422 49.1445 50.6394 49.1445 49.6808V45.9439C48.952 45.9047 48.7788 45.8656 48.5863 45.8265C44.9873 44.8874 42.8126 41.1505 43.7364 37.5114C44.2945 35.281 45.8919 33.5006 48.0474 32.7572C48.4131 32.6398 48.7788 32.542 49.1637 32.4833V28.7464C49.1637 27.7877 48.3939 27.0051 47.4508 27.0051H43.7748C43.7364 27.2008 43.6979 27.3964 43.6594 27.5725C42.7356 31.2311 39.0596 33.4419 35.4799 32.5028C33.2858 31.955 31.5344 30.3116 30.8031 28.1203C30.6876 27.7486 30.5914 27.3768 30.5337 27.0051H26.8577C25.9146 27.0051 25.1448 27.7877 25.1448 28.7464V37.081L22.7006 36.5723C22.2194 36.4745 21.7383 36.5136 21.2764 36.6701C20.4488 36.9636 19.8137 37.6484 19.602 38.5288C19.5442 38.7636 19.525 38.9788 19.525 39.2136C19.525 40.7005 20.7182 41.9135 22.1809 41.9135C22.3541 41.9135 22.5466 41.894 22.7198 41.8548L25.164 41.3657V49.7003C25.164 50.659 25.9339 51.4416 26.8769 51.4416H32.593V53.3003L34.633 53.5155V55.198H34.5561Z" fill="white"/>
</g>
<path id="Vector_5" fill-rule="evenodd" clip-rule="evenodd" d="M26.8005 24.9509H32.5165C32.3433 25.7922 32.4011 26.6726 32.6705 27.4748C33.1709 28.9813 34.4026 30.1356 35.9231 30.5269C38.425 31.1725 40.9847 29.6465 41.6391 27.0835C41.7353 26.6922 41.7931 26.3009 41.7931 25.9096C41.7931 25.5966 41.7546 25.264 41.6968 24.9509H47.4129C49.4914 24.9509 51.1658 26.6531 51.1658 28.7661V34.5768C50.3383 34.4007 49.4722 34.4594 48.6831 34.7333C47.2012 35.242 46.0657 36.4942 45.6807 38.0398C45.0456 40.5832 46.5468 43.1854 49.068 43.8506C49.4529 43.9484 49.8379 44.0071 50.2228 44.0071C50.5307 44.0071 50.8579 43.9679 51.1658 43.9093V49.72C51.1658 51.833 49.4914 53.5352 47.4129 53.5352H41.6968C41.7546 53.8482 41.7931 54.1612 41.7931 54.4938C41.7931 57.1351 39.6953 59.2677 37.0971 59.2677C36.7121 59.2677 36.3272 59.209 35.9423 59.1111C34.4219 58.7198 33.1901 57.5851 32.6897 56.059C32.4203 55.2373 32.3626 54.3764 32.5358 53.5352H26.8197C24.7412 53.5352 23.0668 51.833 23.0668 49.72V43.9093C22.7589 43.9679 22.4509 44.0071 22.1237 44.0071C19.5255 44.0071 17.4277 41.8745 17.4277 39.2333C17.4277 38.842 17.4855 38.4507 17.5817 38.0594C17.9666 36.5137 19.0829 35.2616 20.5841 34.7529C21.3924 34.479 22.2392 34.4203 23.0668 34.5964V28.7856C23.0668 26.6531 24.7412 24.9509 26.8005 24.9509Z" fill="#46B249"/>
<path id="Vector_6" fill-rule="evenodd" clip-rule="evenodd" d="M89.6575 21.5466V27.3378C88.8299 27.1617 87.9831 27.2204 87.1748 27.4943C85.6928 28.003 84.5766 29.2551 84.1917 30.8007C83.5565 33.3442 85.0577 35.9267 87.5597 36.5919C87.9446 36.6898 88.3295 36.7484 88.7144 36.7484C89.0224 36.7484 89.3496 36.7093 89.6575 36.6506V42.4418C89.6575 44.5353 87.9831 46.2374 85.9238 46.2374H80.227C80.4002 45.3961 80.3425 44.5353 80.073 43.7135C79.5726 42.207 78.3409 41.0723 76.8205 40.681C74.3185 40.0353 71.778 41.5614 71.1237 44.1048C71.0274 44.4961 70.9697 44.8874 70.9697 45.2787C70.9697 45.5918 71.0082 45.9244 71.0659 46.2374H65.3691C63.3098 46.2374 61.6354 44.5353 61.6354 42.4418V36.6506C61.3275 36.7093 61.0196 36.7484 60.6924 36.7484C58.1134 36.7484 56.0156 34.6159 56.0156 31.9942C56.0156 31.6029 56.0734 31.2116 56.1696 30.8203C56.5545 29.2747 57.6708 28.0421 59.1527 27.5138C59.9418 27.2399 60.8079 27.1812 61.6354 27.3573V21.5661C61.6354 19.4727 63.3098 17.7706 65.3691 17.7706H71.0659C71.0082 17.4575 70.9697 17.1445 70.9697 16.8119C70.9697 14.1902 73.0675 12.0576 75.6465 12.0576C76.0314 12.0576 76.4163 12.1163 76.8012 12.2141C78.3216 12.6054 79.5341 13.7402 80.0538 15.2467C80.3232 16.0488 80.381 16.9293 80.2078 17.7706H85.9045C86.8861 17.7706 87.8484 18.1618 88.5412 18.8857C89.2533 19.5705 89.6575 20.5292 89.6575 21.5466Z" fill="#46B249"/>
<g id="Group_5">
<path id="Vector_7" d="M5.7845 60.0306C5.57279 59.7176 5.41882 50.4243 5.63053 50.0525C5.84223 49.6808 14.984 46.9809 14.984 46.9809C14.984 46.9809 18.0826 41.8549 21.008 38.9788C22.1628 37.8441 23.8372 36.8854 24.2606 37.531C24.5108 37.9223 24.1066 38.9397 23.5292 39.9962C22.7209 41.4831 21.6046 43.0483 21.5084 43.2048C21.5084 43.2048 21.5084 43.2048 21.5084 43.2244C21.5084 43.2244 29.1106 41.2679 30.2461 41.0527C31.3816 40.8375 32.8828 40.5049 33.1137 41.2875C33.3254 42.0114 31.4008 42.8527 31.2853 42.9114C31.4008 42.8722 34.0375 42.1288 34.4224 43.1461C34.7111 43.8896 31.9974 45.3178 31.9205 45.357C31.9974 45.3374 33.2869 44.9852 33.4216 45.6113C33.6526 46.6483 30.8234 47.8221 30.708 47.8808C30.7657 47.8613 31.8242 47.6069 31.9012 48.1939C32.0937 49.6221 22.3937 53.5742 19.4299 54.6894C16.4467 55.785 5.9962 60.3436 5.7845 60.0306ZM104.458 8.96636C104.67 9.2794 104.824 18.514 104.612 18.8857C104.401 19.2575 95.2588 21.9379 95.2588 21.9379C95.2588 21.9379 92.1602 27.0443 89.2348 29.9007C88.0801 31.0355 86.4057 31.9746 85.9823 31.3485C85.7321 30.9572 86.1362 29.9594 86.7136 28.9029C87.5219 27.4356 88.6382 25.8704 88.7344 25.7139V25.6943C88.7344 25.6943 81.1515 27.6508 79.9968 27.8464C78.8613 28.0617 77.3601 28.3943 77.1291 27.6117C76.9174 26.8878 78.842 26.0465 78.9575 26.0073C78.842 26.0465 76.2053 26.7704 75.8204 25.7726C75.5317 25.0291 78.2454 23.6204 78.3224 23.5813C78.2454 23.6009 76.9559 23.953 76.8212 23.327C76.5902 22.3096 79.4194 21.1161 79.5349 21.077C79.4771 21.0966 78.4186 21.3509 78.3416 20.764C78.1492 19.3553 87.8491 15.4228 90.813 14.3076C93.7961 13.1924 104.247 8.65333 104.458 8.96636Z" fill="#DF5426"/>
</g>
</g>
<g id="Group_6">
<path id="Vector_8" d="M71.2388 73.1389C70.5267 81.4148 87.2899 69.1281 93.4486 63.6695C94.6419 62.5935 95.8736 61.2435 95.7966 59.6196C95.7004 57.7805 93.9298 56.4893 92.1976 56.0001C87.7133 54.7284 83.0173 56.9979 79.2066 59.7174C79.2066 59.6979 71.8354 66.2325 71.2388 73.1389Z" fill="#F2FFEC"/>
</g>
</g>
</g>
<defs>
<clipPath id="clip0_2_1691">
<rect width="105.833" height="75.8333" fill="white" transform="translate(0.666016 0.0834961)"/>
</clipPath>
</defs>
</svg>
