<svg width="82" height="69" viewBox="0 0 82 69" fill="none" xmlns="http://www.w3.org/2000/svg">
<g id="Frame" clip-path="url(#clip0_2_1710)">
<g id="Group">
<path id="Vector" d="M80.4781 58.8476C76.6715 68.0745 68.3227 69.3472 54.9517 67.5973C44.8916 66.2769 35.727 65.2587 25.6828 57.8135C18.6455 52.6114 13.0796 45.5639 9.01717 38.7232C4.61884 31.3099 -1.53882 22.8624 1.48403 14.4627C5.61046 2.89718 29.5694 -6.82295 52.8246 9.0856C78.3829 26.5532 84.2047 49.8115 80.4781 58.8476Z" fill="#F2FFEC"/>
<path id="Vector_2" fill-rule="evenodd" clip-rule="evenodd" d="M50.4234 23.6105C51.2231 21.7969 51.7189 19.7924 51.7189 17.6607C51.7189 9.88137 45.7532 3.56567 38.38 3.56567C31.0068 3.56567 25.041 9.88137 25.041 17.6607C25.041 20.1742 25.7128 22.4969 26.8003 24.5332" fill="#DF5426"/>
<path id="Vector_3" fill-rule="evenodd" clip-rule="evenodd" d="M64.0669 16.2607V24.2787C66.562 26.3149 68.5452 28.8444 69.7288 31.7557H72.7676C74.6869 31.7557 76.2543 33.1556 76.2543 34.8897V44.5143C76.2543 46.2484 74.7029 47.6483 72.7676 47.6483H68.2094C66.386 50.496 63.7471 52.8663 60.5962 54.5208V60.2002C60.5962 61.9342 59.0448 63.3342 57.1096 63.3342H52.2794C50.3601 63.3342 50.2322 61.9342 50.2322 60.2002L50.1362 57.0662H29.8079V59.7866C29.8079 61.5206 30.4797 62.9205 28.5604 62.9205H24.0661C22.1468 62.9205 20.5794 61.5206 20.5794 59.7866V52.2459C16.309 48.7937 13.6221 43.8144 13.6221 38.2464C13.6221 27.8422 22.9625 19.4106 34.4942 19.4106H50.2482C51.7356 19.4106 53.1911 18.9652 54.3746 18.1539C56.1179 16.9766 58.2611 16.2607 60.5962 16.2607H64.0669Z" fill="#46B249" stroke="white" stroke-width="2.01667" stroke-linecap="round" stroke-linejoin="round"/>
<path id="Vector_4" d="M61.0118 31.9307C61.2197 32.1535 61.2197 32.5193 61.0118 32.758C60.8039 32.9807 60.468 32.9807 60.2761 32.758C60.0681 32.5353 60.0681 32.1694 60.2761 31.9307C60.452 31.7239 60.7719 31.708 60.9798 31.883C60.9798 31.8989 60.9958 31.9148 61.0118 31.9307Z" stroke="white" stroke-width="2.29167" stroke-linecap="round" stroke-linejoin="round"/>
</g>
</g>
<defs>
<clipPath id="clip0_2_1710">
<rect width="80.8333" height="67.5" fill="white" transform="translate(0.666992 0.75)"/>
</clipPath>
</defs>
</svg>
