<svg width="57" height="57" viewBox="0 0 57 57" fill="none" xmlns="http://www.w3.org/2000/svg">
<g clip-path="url(#clip0_2_311)">
<path d="M56.1667 33.5141C55.9279 34.5039 55.6481 35.4787 54.9739 36.276C54.6709 36.6351 54.3447 36.9791 53.9994 37.2972C53.1478 38.0836 52.7083 39.042 52.7779 40.1997C52.8775 41.879 52.5063 43.3985 51.3871 44.6996C50.6556 45.5502 49.733 46.099 48.6875 46.4594C47.5097 46.8649 46.7536 47.6636 46.3209 48.8281C45.2728 51.6542 43.2951 52.9935 40.2762 52.8979C38.9468 52.8556 37.8918 53.3048 37.0129 54.3014C35.2345 56.3179 32.6059 56.879 30.1943 55.7172C28.9018 55.0946 27.6721 55.0455 26.3919 55.6912C24.0171 56.8886 21.1906 56.2551 19.5159 54.2987C18.6383 53.2734 17.5438 52.831 16.1967 52.8993C13.7919 53.0208 11.9398 52.0542 10.7101 49.9667C10.4917 49.5954 10.3362 49.1817 10.1888 48.7749C9.78068 47.6458 9.02594 46.8649 7.89041 46.4772C6.33042 45.9447 5.113 45.015 4.35553 43.5241C3.86692 42.5616 3.68267 41.5377 3.75228 40.4687C3.8096 39.5922 3.67449 38.758 3.15858 38.0372C2.88699 37.6576 2.54442 37.3232 2.20458 36.9996C0.891622 35.7449 0.252887 34.2104 0.394828 32.4069C0.448056 31.7352 0.622753 31.0334 0.916189 30.43C1.58495 29.0497 1.58631 27.7432 0.913459 26.3643C0.0672719 24.6304 0.164174 22.8692 1.10726 21.2023C1.45666 20.5838 1.9671 20.0336 2.48436 19.5367C3.36467 18.6916 3.82871 17.7072 3.75228 16.4853C3.64855 14.8211 4.05527 13.322 5.1676 12.0482C5.83909 11.2796 6.65798 10.7226 7.627 10.4099C8.96998 9.97579 9.80115 9.08702 10.2925 7.76545C11.2574 5.16874 13.2555 3.80213 16.0206 3.88677C17.4919 3.93183 18.6752 3.50587 19.6237 2.37271C20.5382 1.27914 21.7897 0.775363 23.1422 0.480469C23.6513 0.480469 24.159 0.480469 24.6681 0.480469C25.4938 0.786285 26.3045 1.14398 27.1507 1.3788C27.6762 1.52489 28.2849 1.62182 28.798 1.49758C29.8408 1.24637 30.8439 0.828608 31.8621 0.480469C32.3711 0.480469 32.8789 0.480469 33.3879 0.480469C34.8674 0.782189 36.1449 1.42932 37.1398 2.6007C37.915 3.51406 38.9209 3.89906 40.1247 3.88814C40.8781 3.88131 41.6615 3.90589 42.3807 4.10112C44.3884 4.64449 45.6604 6.00974 46.3291 7.95659C46.7331 9.13207 47.5179 9.91845 48.6944 10.3226C49.7398 10.6816 50.6611 11.2318 51.3912 12.0837C52.494 13.3684 52.8803 14.8675 52.7793 16.5276C52.7069 17.7277 53.1532 18.7148 54.0417 19.5203C54.3761 19.8234 54.6832 20.1606 54.9766 20.5046C55.6536 21.3006 55.9279 22.2781 56.1695 23.2652C56.1695 23.7744 56.1695 24.2823 56.1695 24.7915C55.8638 25.6175 55.5062 26.4284 55.2714 27.2735C55.1254 27.7978 55.0285 28.4081 55.1527 28.9214C55.4052 29.9644 55.8214 30.9665 56.1695 31.9864C56.1667 32.497 56.1667 33.0062 56.1667 33.5141ZM16.2308 6.07527C14.2832 5.95513 12.9771 6.76472 12.3233 8.59279C11.6341 10.5219 10.3484 11.7834 8.42269 12.466C6.67572 13.0845 5.82407 14.3965 5.94281 16.2382C6.07111 18.226 5.39279 19.8438 3.92698 21.1818C2.4366 22.5429 2.16227 23.9273 3.01664 25.7376C3.85464 27.5111 3.8601 29.2531 3.0262 31.028C2.17046 32.8492 2.4325 34.2445 3.9106 35.5893C5.39552 36.9395 6.07247 38.5724 5.94281 40.5793C5.82544 42.3855 6.6921 43.7153 8.40085 44.3119C10.3539 44.9945 11.6423 46.2737 12.3356 48.222C12.9662 49.9954 14.275 50.8337 16.1516 50.7149C18.0951 50.592 19.6906 51.2514 21.0036 52.685C22.4257 54.2373 23.7864 54.4939 25.6958 53.6024C27.4141 52.801 29.1174 52.8024 30.8357 53.6051C32.7478 54.498 34.0894 54.24 35.5266 52.6781C36.8423 51.2487 38.4378 50.5893 40.3813 50.7135C42.2524 50.8323 43.5654 49.9859 44.1932 48.2151C44.877 46.2874 46.1503 45.0095 48.0788 44.3255C49.8695 43.6893 50.702 42.3718 50.5833 40.4632C50.4645 38.5628 51.1074 36.9873 52.5036 35.6999C54.1113 34.2172 54.3666 32.9093 53.4521 30.9229C52.6783 29.2409 52.6701 27.5657 53.4453 25.881C54.3734 23.8659 54.1154 22.5743 52.479 21.0603C51.0992 19.7838 50.4645 18.2192 50.5819 16.3406C50.702 14.4019 49.8804 13.0995 48.0461 12.4442C46.1381 11.7615 44.8824 10.4905 44.1987 8.58597C43.5449 6.76336 42.2374 5.94967 40.2912 6.06844C38.4364 6.18176 36.8805 5.55921 35.6167 4.19532C34.0744 2.53108 32.7942 2.27031 30.7538 3.21097C29.0874 3.97824 27.4291 3.97688 25.7641 3.21097C25.4037 3.04441 25.0352 2.87102 24.6517 2.78365C23.1245 2.43551 21.9357 3.0212 20.9367 4.15709C19.6906 5.57149 18.0965 6.16811 16.2308 6.07527Z" fill="#FF6916"/>
<path d="M38.9725 36.1877C39.4734 38.2547 38.6163 39.8589 36.7683 40.304C36.4735 40.375 36.1569 40.3777 35.8511 40.3777C32.9455 40.3831 30.0398 40.364 27.1341 40.3886C25.772 40.3995 24.4645 40.1729 23.2007 39.6814C22.9195 39.5722 22.7489 39.6159 22.4787 39.777C22.0133 40.0528 21.4687 40.3299 20.946 40.3531C19.3505 40.4268 17.7509 40.3941 16.1527 40.375C14.8521 40.3586 13.7807 39.3128 13.7766 38.0185C13.7602 33.6415 13.7616 29.2632 13.7752 24.8862C13.7793 23.5865 14.8398 22.5325 16.1364 22.5147C17.7523 22.4929 19.3696 22.4792 20.9856 22.5298C21.4305 22.5434 21.9 22.7414 22.2971 22.9625C22.5647 23.1113 22.723 23.1086 22.9714 22.9762C24.0509 22.4014 25.1264 21.8171 25.7651 20.714C26.0531 20.2156 26.3002 19.6859 26.5049 19.1467C26.988 17.877 27.4302 16.5923 27.8984 15.3171C28.2491 14.3601 28.7637 14.1375 29.7245 14.5062C32.4801 15.5629 33.9445 18.5255 33.1215 21.3802C33.0178 21.7406 32.8977 22.0983 32.7694 22.5079C34.3157 22.5079 35.8034 22.5052 37.291 22.5093C39.1049 22.5134 40.31 23.5796 40.5243 25.3654C40.5325 25.4377 40.5666 25.521 40.542 25.5797C40.2076 26.3989 40.6307 26.8412 41.2203 27.3819C42.5701 28.6201 42.3654 30.7923 40.8996 31.9145C40.7713 32.0128 40.6348 32.1015 40.4779 32.2121C41.017 33.9078 40.5147 35.2252 38.9725 36.1877ZM29.6344 16.9745C29.2359 18.0722 28.8455 19.1194 28.4757 20.1747C27.9243 21.7475 26.9989 23.0431 25.6137 23.9769C24.9995 24.3906 24.3198 24.7073 23.6893 25.1005C23.5391 25.1947 23.3767 25.4159 23.3754 25.5784C23.3576 29.4106 23.359 33.2442 23.3726 37.0765C23.3726 37.213 23.5036 37.4315 23.6197 37.4697C24.3212 37.7032 25.0336 38.054 25.7488 38.0731C29.1772 38.1673 32.6097 38.1742 36.0395 38.1933C36.5963 38.196 36.9771 37.7878 36.9689 37.3182C36.9607 36.8458 36.5813 36.4854 36.0163 36.4621C35.4717 36.4389 34.9272 36.4581 34.3826 36.4553C33.5528 36.4499 33.0492 36.0253 33.0642 35.3454C33.0778 34.6832 33.5651 34.2832 34.3744 34.2805C35.4103 34.2764 36.4448 34.2832 37.4807 34.2764C37.8847 34.2736 38.2833 34.1535 38.3911 33.7344C38.458 33.4736 38.4266 33.0777 38.2655 32.8947C38.0799 32.6845 37.7073 32.5575 37.4098 32.5466C36.3943 32.5056 35.3762 32.5343 34.3594 32.5302C33.5569 32.5261 33.0683 32.1152 33.0642 31.4517C33.0601 30.7854 33.5501 30.3581 34.343 30.3554C35.7966 30.3499 37.2487 30.3581 38.7023 30.3499C38.9343 30.3485 39.2277 30.3622 39.3819 30.2339C39.6112 30.0441 39.876 29.7355 39.876 29.4775C39.8746 29.2195 39.6085 28.9123 39.3778 28.7239C39.2222 28.5969 38.9302 28.6106 38.6982 28.6092C37.2992 28.5997 35.9016 28.6051 34.5027 28.6038C33.5664 28.6038 33.056 28.2106 33.0656 27.5034C33.0751 26.7975 33.576 26.4289 34.5286 26.4275C35.4554 26.4262 36.3821 26.4398 37.3074 26.4234C38.0471 26.4098 38.4648 25.9347 38.2873 25.3176C38.1345 24.7865 37.6977 24.6787 37.2119 24.6787C35.2684 24.6787 33.3249 24.6814 31.3814 24.6773C30.4001 24.6746 29.9319 24.0261 30.2336 23.0868C30.4601 22.3796 30.7194 21.6833 30.9419 20.9747C31.4401 19.3801 30.9692 17.8906 29.6344 16.9745ZM21.1807 31.4571C21.1807 29.4065 21.1698 27.3559 21.1889 25.3053C21.193 24.8288 21.0333 24.6664 20.5597 24.6759C19.2359 24.6991 17.9106 24.6964 16.5854 24.6773C16.1268 24.6705 15.9344 24.8165 15.9357 25.3012C15.948 29.4024 15.9467 33.5036 15.9371 37.6062C15.9357 38.054 16.1009 38.2179 16.5458 38.2124C17.8697 38.1947 19.1949 38.1906 20.5188 38.2138C21.0115 38.222 21.193 38.0609 21.1876 37.5557C21.1684 35.5229 21.1807 33.49 21.1807 31.4571Z" fill="#FF6916"/>
<path d="M6.21143 28.3794C6.43389 21.1723 9.24815 15.3072 14.9176 10.8878C18.2464 8.29249 22.0515 6.85488 26.2592 6.47398C30.5461 6.08624 34.5887 6.90813 38.4198 8.84542C38.9084 9.09253 39.2769 9.41336 39.255 10.0004C39.2277 10.7199 38.5071 11.2128 37.8206 10.9506C37.0945 10.6735 36.4094 10.2885 35.6819 10.0168C29.0025 7.51976 22.6548 8.22013 16.7901 12.2585C12.5128 15.2048 9.91281 19.3592 8.86054 24.4503C8.03755 28.4327 8.42926 32.3127 9.98924 36.0713C10.0793 36.2884 10.1844 36.5013 10.254 36.7252C10.4506 37.356 10.183 37.9662 9.63848 38.1669C9.05571 38.3799 8.46201 38.1465 8.22044 37.5062C7.75231 36.272 7.29509 35.0296 6.92523 33.764C6.66728 32.882 6.51714 31.9605 6.39841 31.0458C6.2824 30.1502 6.26738 29.2396 6.21143 28.3794Z" fill="#FF6916"/>
<path d="M28.361 50.4941C25.3188 50.4395 22.4118 49.8387 19.6207 48.6592C19.1403 48.4557 18.7745 48.1649 18.7554 47.5915C18.7268 46.7546 19.4774 46.2959 20.3646 46.5867C21.6188 46.999 22.8553 47.496 24.1383 47.7758C28.795 48.7889 33.2798 48.2045 37.4766 45.945C42.8581 43.0466 46.262 38.5727 47.5913 32.6011C48.5904 28.1149 48.0526 23.7734 46.0395 19.6271C45.9208 19.3827 45.7911 19.1424 45.686 18.8926C45.4076 18.2318 45.6028 17.6365 46.176 17.3703C46.7274 17.1137 47.3429 17.3103 47.6363 17.9246C48.1372 18.969 48.6518 20.0148 49.0367 21.1043C50.0016 23.8348 50.426 26.6677 50.2541 29.5579C49.9552 34.5698 48.2 39.0232 44.8903 42.82C41.5315 46.6741 37.3183 49.0851 32.3013 50.0408C31.006 50.2865 29.6753 50.348 28.361 50.4941Z" fill="#FF6916"/>
<path d="M13.4492 42.1197C14.0661 42.1142 14.6134 42.6453 14.6093 43.246C14.6052 43.8112 14.1002 44.3082 13.5242 44.3136C12.9128 44.3205 12.3601 43.7812 12.3655 43.1846C12.371 42.6112 12.8664 42.1251 13.4492 42.1197Z" fill="#FF6916"/>
<path d="M41.989 13.5641C41.9999 12.9812 42.4926 12.4924 43.0658 12.4951C43.6458 12.4979 44.1713 13.033 44.1727 13.6187C44.174 14.2181 43.6486 14.73 43.0562 14.7096C42.4571 14.6877 41.978 14.1744 41.989 13.5641Z" fill="#FF6916"/>
</g>
<defs>
<clipPath id="clip0_2_311">
<rect width="55.8333" height="55.8333" fill="white" transform="translate(0.333252 0.483398)"/>
</clipPath>
</defs>
</svg>
